<svg width="44" height="44" viewBox="0 0 44 44" fill="none" xmlns="http://www.w3.org/2000/svg">
<path d="M15.599 14.3846L11.9516 14.6667L11.6753 15.2308H0.986473C0.892379 15.5104 0.803517 15.7925 0.720004 16.0769H11.3989L11.1226 16.9231H13.3802C14.0398 15.96 14.8089 15.0713 15.599 14.3846Z" fill="#0000A0"/>
<path d="M12.7806 17.8715L10.5699 18.0513L10.2936 18.6154L0.0831434 18.8974C0.0531605 19.0847 0.0254362 19.2728 0 19.4615H10.0172L9.7409 20.3077L11.6753 20.3429C11.9159 19.5446 12.301 18.6967 12.7806 17.8715Z" fill="#0000A0"/>
<path d="M13.2258 1.80513H19.9101L19.4087 2.40221L23.2262 2.70769L18.9962 2.89341L18.5837 3.38462H10.2936L8.63555 4.51282H17.4784L17.0362 5.18974L21.4576 5.41539L16.7615 5.64103L16.3194 6.31795H6.64591L5.54056 7.44615H15.7098L15.2676 8.12308L21.4576 8.34872L14.9518 8.8L14.7307 9.25128H4.0486L3.43381 10.1538H14.1623L13.886 10.7179H20.7944L13.3333 11.5641L13.0569 12.1282H2.29414C2.15145 12.4069 2.01431 12.689 1.88285 12.9744H12.5043L12.2279 13.8205H16.3194C16.3194 13.8205 18.5837 12.1282 21.6234 12.1282C24.6631 12.1372 26.8738 13.8205 26.8738 13.8205C29.9199 16.3427 30.8936 18.1308 31.2952 22H44C43.7067 9.79885 33.9244 0 21.8998 0C18.0467 0.0736459 16.1941 0.535548 13.2258 1.80513Z" fill="#0000A0"/>
<path d="M15.599 29.6154L11.9516 29.3333L11.6753 28.7692H0.986473C0.892379 28.4896 0.803517 28.2075 0.720004 27.9231H11.3989L11.1226 27.0769H13.3802C14.0398 28.04 14.8089 28.9287 15.599 29.6154Z" fill="#0000A0"/>
<path d="M12.7806 26.1285L10.5699 25.9487L10.2936 25.3846L0.0831434 25.1026C0.0531605 24.9153 0.0254362 24.7272 0 24.5385H10.0172L9.7409 23.6923L11.6753 23.6571C11.9159 24.4554 12.301 25.3033 12.7806 26.1285Z" fill="#0000A0"/>
<path d="M13.2258 42.1949H19.9101L19.4087 41.5978L23.2262 41.2923L18.9962 41.1066L18.5837 40.6154H10.2936L8.63555 39.4872H17.4784L17.0362 38.8103L21.4576 38.5846L16.7615 38.359L16.3194 37.6821H6.64591L5.54056 36.5538H15.7098L15.2676 35.8769L21.4576 35.6513L14.9518 35.2L14.7307 34.7487H4.0486L3.43381 33.8462H14.1623L13.886 33.2821H20.7944L13.3333 32.4359L13.0569 31.8718H2.29414C2.15145 31.5931 2.01431 31.311 1.88285 31.0256H12.5043L12.2279 30.1795H16.3194C16.3194 30.1795 18.5837 31.8718 21.6234 31.8718C24.6631 31.8628 26.8738 30.1795 26.8738 30.1795C29.9199 27.6573 30.8936 25.8692 31.2952 22H44C43.7067 34.2011 33.9244 44 21.8998 44C18.0467 43.9264 16.1941 43.4645 13.2258 42.1949Z" fill="#0000A0"/>
</svg>
